<?xml version="1.0" standalone="no"?>
<!DOCTYPE svg PUBLIC "-//W3C//DTD SVG 20010904//EN"
 "http://www.w3.org/TR/2001/REC-SVG-20010904/DTD/svg10.dtd">
<svg version="1.0" xmlns="http://www.w3.org/2000/svg"
 width="512.000000pt" height="512.000000pt" viewBox="0 0 512.000000 512.000000"
 preserveAspectRatio="xMidYMid meet">

<g transform="translate(0.000000,512.000000) scale(0.100000,-0.100000)"
fill="#000000" stroke="none">
<path d="M2532 4988 c-11 -13 -25 -34 -31 -48 -6 -14 -18 -34 -26 -45 -13 -19
-13 -23 1 -43 8 -12 24 -22 34 -22 14 0 18 -5 13 -17 -9 -28 -53 -83 -65 -83
-20 0 -79 72 -77 94 3 38 -1 46 -21 46 -27 0 -38 -29 -17 -45 23 -17 24 -123
1 -132 -20 -8 -53 8 -98 47 -32 28 -34 34 -21 44 21 15 9 46 -16 46 -11 0 -22
-7 -25 -15 -5 -11 -10 -12 -18 -6 -7 6 1 -16 16 -49 32 -66 68 -197 68 -247
l0 -33 310 0 310 0 0 33 c0 50 36 181 68 247 15 33 23 55 16 49 -8 -6 -13 -5
-18 6 -3 8 -14 15 -25 15 -25 0 -37 -31 -16 -46 13 -10 11 -16 -21 -44 -45
-39 -78 -55 -98 -47 -23 9 -22 115 1 132 21 16 10 45 -17 45 -20 0 -24 -8 -21
-46 2 -22 -57 -94 -77 -94 -12 0 -56 55 -65 83 -5 12 -1 17 13 17 10 0 26 10
34 22 14 20 14 24 1 43 -8 11 -20 31 -26 45 -11 26 -48 70 -59 70 -4 0 -16
-10 -28 -22z m48 -298 c12 -30 9 -62 -10 -90 -9 -13 -11 -13 -20 0 -19 28 -22
60 -10 90 7 17 16 30 20 30 4 0 13 -13 20 -30z"/>
<path d="M1886 4662 c-16 -23 -48 -60 -72 -82 -50 -46 -60 -47 -203 -24 -152
26 -160 21 -240 -142 -39 -79 -59 -108 -82 -119 -16 -9 -78 -20 -139 -25 -60
-6 -120 -15 -134 -21 -34 -16 -52 -58 -75 -174 -11 -53 -27 -108 -36 -122 -18
-26 -60 -47 -171 -82 -39 -12 -84 -33 -100 -46 l-29 -23 0 -146 c0 -172 7
-158 -146 -259 -65 -43 -97 -70 -104 -90 -10 -29 -3 -68 35 -207 24 -89 18
-119 -36 -171 -20 -19 -59 -61 -86 -93 -46 -55 -50 -63 -46 -100 3 -25 26 -78
57 -131 78 -136 78 -134 0 -270 -31 -53 -54 -106 -57 -131 -4 -37 0 -45 46
-100 27 -32 66 -74 86 -93 54 -52 60 -82 36 -171 -38 -139 -45 -178 -35 -207
7 -20 39 -47 104 -90 153 -100 146 -90 143 -244 -2 -98 1 -136 12 -158 17 -31
69 -59 161 -86 124 -35 138 -51 166 -190 23 -116 41 -158 75 -174 14 -6 74
-15 134 -21 61 -5 123 -16 139 -25 23 -11 43 -41 82 -120 55 -112 93 -155 137
-155 15 0 65 7 112 15 138 24 146 23 204 -38 28 -29 74 -79 101 -110 45 -50
55 -57 88 -57 22 0 78 17 130 39 153 64 152 64 282 -35 124 -94 143 -93 272 3
131 98 125 97 280 32 52 -22 108 -39 130 -39 33 0 43 7 88 57 27 31 73 81 101
110 58 61 66 62 204 38 47 -8 97 -15 112 -15 44 0 82 43 137 155 39 79 59 109
82 120 16 9 78 20 139 25 60 6 120 15 134 21 34 16 52 58 75 174 28 139 42
155 166 190 93 27 144 55 161 86 11 22 14 59 12 159 -4 153 -9 143 143 243 65
43 97 70 104 90 10 29 3 68 -35 207 -24 89 -18 119 36 171 20 19 59 61 86 93
46 55 50 63 46 100 -3 25 -26 78 -57 131 -57 99 -66 124 -57 158 3 12 29 63
57 112 31 53 54 106 57 131 4 37 0 45 -46 100 -27 32 -66 74 -86 93 -54 52
-60 82 -35 176 57 212 58 208 -70 292 -152 100 -147 90 -143 243 2 100 -1 137
-12 159 -16 30 -71 61 -144 80 -73 20 -130 49 -147 74 -9 14 -25 69 -36 122
-23 116 -41 158 -75 174 -14 6 -74 15 -134 21 -61 5 -123 16 -139 25 -23 11
-43 40 -82 119 -80 163 -88 168 -240 142 -163 -27 -167 -25 -260 86 l-49 59 0
-83 c0 -46 -7 -110 -15 -142 -9 -33 -14 -60 -13 -60 2 -1 44 -17 93 -35 126
-47 289 -129 408 -207 491 -322 811 -821 903 -1409 23 -149 23 -441 0 -590
-93 -592 -416 -1093 -916 -1418 -568 -369 -1311 -426 -1930 -147 -864 390
-1348 1319 -1169 2245 134 697 630 1282 1294 1526 50 18 91 34 92 34 2 1 -2
17 -8 36 -6 19 -14 83 -17 143 l-7 109 -29 -41z"/>
<path d="M2352 4439 c-40 -5 -81 -13 -90 -18 -15 -8 -13 -11 13 -23 43 -18
527 -18 570 0 25 11 27 15 14 22 -46 26 -349 37 -507 19z"/>
<path d="M1870 3905 c0 -90 4 -145 10 -145 6 0 10 55 10 145 0 90 -4 145 -10
145 -6 0 -10 -55 -10 -145z"/>
<path d="M1970 4040 c0 -5 18 -10 40 -10 l40 0 0 -135 c0 -178 18 -180 22 -2
l3 132 38 3 c73 6 35 22 -53 22 -53 0 -90 -4 -90 -10z"/>
<path d="M2266 4033 c-2 -10 -21 -70 -40 -134 -20 -63 -36 -121 -36 -127 0
-25 19 -10 30 23 l12 36 56 -3 c54 -3 56 -4 64 -35 5 -18 15 -33 23 -33 8 0
13 6 10 13 -2 6 -22 72 -45 145 -27 86 -46 132 -55 132 -7 0 -16 -8 -19 -17z
m44 -99 c11 -36 20 -70 20 -75 0 -5 -20 -9 -45 -9 -25 0 -45 3 -45 6 0 11 42
144 46 144 2 0 12 -30 24 -66z"/>
<path d="M2470 3905 l0 -145 75 0 c43 0 75 4 75 10 0 6 -28 10 -65 10 l-65 0
0 135 c0 83 -4 135 -10 135 -6 0 -10 -55 -10 -145z"/>
<path d="M2700 3905 c0 -90 4 -145 10 -145 6 0 10 55 10 145 0 90 -4 145 -10
145 -6 0 -10 -55 -10 -145z"/>
<path d="M2887 4043 c-2 -5 -21 -64 -42 -133 -21 -69 -40 -131 -42 -137 -3 -7
1 -13 9 -13 9 0 19 15 24 33 9 31 12 32 67 35 57 3 57 3 63 -28 7 -30 20 -47
31 -36 10 10 -79 286 -93 286 -7 0 -15 -3 -17 -7z m57 -165 c6 -28 6 -28 -43
-28 l-50 0 20 63 c12 34 23 69 26 77 5 14 31 -48 47 -112z"/>
<path d="M3087 4043 c-4 -3 -7 -69 -7 -145 0 -116 2 -138 15 -138 12 0 15 19
15 113 l1 112 60 -112 c33 -62 65 -113 70 -113 5 0 9 62 9 145 0 173 -18 200
-22 33 l-3 -113 -58 113 c-54 107 -65 121 -80 105z"/>
<path d="M1740 3480 c0 -43 3 -50 19 -50 52 0 51 8 51 -286 l0 -273 -36 -7
-36 -7 6 -45 c3 -25 7 -46 9 -47 1 -1 66 -5 145 -9 l142 -7 0 50 0 51 -40 6
-40 7 0 273 0 274 40 6 c43 7 47 16 34 83 l-6 31 -144 0 -144 0 0 -50z"/>
<path d="M1235 3514 c-11 -2 -50 -6 -87 -9 l-68 -7 0 -48 0 -49 38 -3 37 -3 3
-276 2 -276 -41 -12 -41 -12 7 -42 c4 -23 9 -44 11 -46 2 -2 70 2 151 8 81 6
164 13 183 14 34 2 35 3 38 48 l3 46 -83 9 -83 9 0 65 0 65 72 6 c98 9 163 33
216 80 57 50 82 111 81 199 0 113 -52 189 -153 225 -40 14 -220 19 -286 9z
m197 -114 c20 -6 48 -24 62 -41 21 -25 26 -41 26 -89 0 -48 -5 -64 -25 -88
-28 -34 -78 -56 -147 -66 l-48 -7 0 145 0 145 28 4 c50 7 67 7 104 -3z"/>
<path d="M2140 3400 l0 -120 43 0 44 0 9 58 9 57 115 -4 c63 -2 118 -6 122
-10 3 -3 -76 -125 -178 -271 -179 -257 -184 -266 -179 -305 3 -22 10 -44 15
-49 8 -8 375 -35 488 -36 l43 0 -3 118 -3 117 -45 0 -45 0 -9 -57 -8 -58 -117
6 c-64 4 -118 8 -120 10 -2 2 24 43 57 91 34 48 114 165 178 260 l117 171 -7
48 c-3 27 -10 52 -15 57 -7 7 -383 36 -478 37 l-33 0 0 -120z"/>
<path d="M2770 3361 l0 -121 44 0 44 0 8 58 9 57 120 -3 c66 -2 121 -5 123 -7
2 -2 -80 -125 -183 -274 -172 -250 -186 -273 -180 -304 4 -18 10 -39 14 -45 8
-13 268 -32 439 -32 l92 0 0 120 0 120 -44 0 c-49 0 -49 -1 -61 -77 l-7 -43
-96 1 c-160 2 -156 -6 -55 139 47 69 128 188 178 265 l93 140 -11 51 -10 52
-106 6 c-58 3 -175 9 -258 12 l-153 7 0 -122z"/>
<path d="M3621 3448 c-4 -13 -55 -164 -112 -337 -100 -301 -105 -314 -134
-327 -28 -11 -30 -16 -27 -53 l4 -41 134 0 134 0 0 44 c0 43 0 43 -41 49 -22
3 -43 8 -46 11 -3 2 3 33 14 67 22 74 26 77 155 78 l87 1 20 -62 c10 -35 16
-66 13 -69 -4 -4 -24 -12 -44 -19 -35 -11 -38 -14 -38 -51 l0 -39 53 0 c56 0
228 18 235 25 2 2 6 21 9 44 5 37 3 41 -20 46 -28 7 -23 -6 -178 442 l-74 213
-68 0 c-61 0 -68 -2 -76 -22z m91 -271 c14 -62 25 -113 24 -114 -2 -2 -30 -6
-64 -9 -48 -5 -62 -4 -62 6 0 23 65 239 70 233 3 -2 17 -55 32 -116z"/>
<path d="M834 2338 c24 -342 154 -639 388 -884 86 -89 193 -178 271 -224 l35
-21 41 68 c39 63 40 69 24 81 -184 132 -271 215 -365 347 -135 190 -228 461
-228 666 l0 69 -86 0 -87 0 7 -102z"/>
<path d="M1024 2353 c18 -226 88 -426 214 -618 83 -126 344 -366 383 -353 6 2
136 222 290 488 154 267 291 504 305 528 l25 42 -612 0 -612 0 7 -87z m261 5
c31 -14 32 -29 0 -76 -31 -45 -31 -52 -1 -52 37 0 51 -23 32 -53 -40 -60 -111
-61 -173 -4 -31 28 -33 111 -3 127 17 9 24 6 44 -15 l24 -26 7 22 c12 37 35
89 40 89 2 0 16 -5 30 -12z m660 -29 c42 -37 45 -70 9 -106 -23 -23 -24 -27
-10 -42 36 -40 6 -91 -66 -113 -32 -10 -41 -9 -57 6 -11 10 -23 31 -26 47 -6
25 -11 29 -40 29 -18 0 -38 6 -44 13 -20 25 -23 72 -7 112 16 38 16 38 64 32
45 -5 49 -4 64 24 23 40 65 39 113 -2z m-365 -87 c102 -51 106 -191 8 -253
-26 -15 -45 -19 -86 -16 -45 3 -59 9 -89 40 -31 30 -37 44 -40 89 -3 41 1 60
16 86 43 67 121 90 191 54z m178 -324 c31 -31 -3 -87 -42 -72 -26 10 -32 55
-11 71 23 16 37 17 53 1z m-398 -28 c15 -28 -4 -60 -36 -60 -31 0 -54 41 -34
65 18 21 57 19 70 -5z m228 -150 c-3 -39 -3 -40 28 -40 38 0 93 -38 72 -51
-18 -12 -86 -11 -93 1 -11 18 -25 11 -25 -13 0 -23 -17 -47 -33 -47 -5 0 -7
18 -5 40 4 40 3 40 -32 40 -19 0 -46 9 -60 20 -21 17 -23 21 -10 30 8 6 33 9
56 7 35 -4 44 0 63 24 32 40 44 36 39 -11z"/>
<path d="M1170 2171 c0 -5 7 -12 16 -15 22 -9 24 -8 18 9 -7 16 -34 21 -34 6z"/>
<path d="M1225 2150 c3 -5 8 -10 11 -10 2 0 4 5 4 10 0 6 -5 10 -11 10 -5 0
-7 -4 -4 -10z"/>
<path d="M1840 2305 c-6 -19 -13 -35 -15 -35 -1 0 -16 7 -31 15 -39 20 -50 19
-68 -7 -20 -29 -20 -82 0 -102 18 -19 24 -19 58 -6 24 9 26 8 26 -21 0 -68 36
-86 98 -49 38 23 43 57 12 85 l-21 19 31 24 c18 14 30 33 30 47 0 30 -44 65
-81 65 -23 0 -29 -6 -39 -35z"/>
<path d="M1470 2211 c0 -6 5 -13 10 -16 6 -3 10 1 10 9 0 9 -4 16 -10 16 -5 0
-10 -4 -10 -9z"/>
<path d="M1560 2200 c0 -5 5 -10 10 -10 6 0 10 5 10 10 0 6 -4 10 -10 10 -5 0
-10 -4 -10 -10z"/>
<path d="M1437 2183 c-4 -3 -7 -12 -7 -20 0 -15 26 -18 34 -4 7 11 -18 33 -27
24z"/>
<path d="M1510 2170 c0 -11 7 -20 15 -20 8 0 15 9 15 20 0 11 -7 20 -15 20 -8
0 -15 -9 -15 -20z"/>
<path d="M1560 2150 c0 -5 7 -10 15 -10 8 0 15 5 15 10 0 6 -7 10 -15 10 -8 0
-15 -4 -15 -10z"/>
<path d="M1395 2140 c3 -5 8 -10 11 -10 2 0 4 5 4 10 0 6 -5 10 -11 10 -5 0
-7 -4 -4 -10z"/>
<path d="M1485 2130 c3 -5 8 -10 11 -10 2 0 4 5 4 10 0 6 -5 10 -11 10 -5 0
-7 -4 -4 -10z"/>
<path d="M1420 2115 c0 -9 5 -15 11 -13 6 2 11 8 11 13 0 5 -5 11 -11 13 -6 2
-11 -4 -11 -13z"/>
<path d="M1525 2119 c-10 -15 3 -25 16 -12 7 7 7 13 1 17 -6 3 -14 1 -17 -5z"/>
<path d="M1615 2120 c3 -5 8 -10 11 -10 2 0 4 5 4 10 0 6 -5 10 -11 10 -5 0
-7 -4 -4 -10z"/>
<path d="M1464 2099 c-3 -6 -2 -15 4 -21 13 -13 32 -2 32 18 0 16 -26 19 -36
3z"/>
<path d="M1560 2097 c0 -19 10 -27 26 -20 21 8 17 33 -6 33 -11 0 -20 -6 -20
-13z"/>
<path d="M1395 2090 c-3 -5 -1 -10 4 -10 6 0 11 5 11 10 0 6 -2 10 -4 10 -3 0
-8 -4 -11 -10z"/>
<path d="M1425 2069 c-10 -15 3 -25 16 -12 7 7 7 13 1 17 -6 3 -14 1 -17 -5z"/>
<path d="M1512 2059 c2 -6 8 -10 13 -10 5 0 11 4 13 10 2 6 -4 11 -13 11 -9 0
-15 -5 -13 -11z"/>
<path d="M1562 2041 c2 -7 7 -12 11 -12 12 1 9 15 -3 20 -7 2 -11 -2 -8 -8z"/>
<path d="M1460 2030 c0 -5 7 -10 16 -10 8 0 12 5 9 10 -3 6 -10 10 -16 10 -5
0 -9 -4 -9 -10z"/>
<path d="M1505 2010 c3 -5 8 -10 11 -10 2 0 4 5 4 10 0 6 -5 10 -11 10 -5 0
-7 -4 -4 -10z"/>
<path d="M1713 1894 c-7 -18 17 -38 31 -24 11 11 1 40 -14 40 -6 0 -13 -7 -17
-16z"/>
<path d="M1305 1880 c-8 -14 3 -30 21 -30 8 0 14 9 14 20 0 21 -24 28 -35 10z"/>
<path d="M2892 2418 c8 -13 146 -251 307 -530 161 -280 297 -508 303 -508 25
0 143 93 233 184 218 218 336 478 361 789 l7 87 -613 0 -612 0 14 -22z m1001
-106 l20 -52 23 25 c20 21 27 24 44 15 30 -16 28 -99 -2 -127 -63 -57 -134
-56 -174 4 -19 30 -5 53 32 53 30 0 30 7 -1 52 -31 46 -31 62 -2 76 32 16 38
11 60 -46z m-605 19 c15 -28 19 -29 64 -24 48 6 48 6 64 -32 16 -40 13 -87 -7
-112 -6 -7 -26 -13 -44 -13 -29 0 -34 -4 -40 -29 -3 -16 -15 -37 -26 -47 -16
-15 -25 -16 -57 -6 -72 22 -102 73 -66 113 14 15 13 19 -10 42 -36 36 -33 69
9 106 48 41 90 42 113 2z m390 -91 c52 -32 74 -76 69 -138 -3 -45 -9 -59 -40
-89 -30 -31 -44 -37 -89 -40 -62 -5 -106 17 -139 69 -25 41 -21 116 8 156 43
59 131 79 191 42z m-263 -323 c21 -16 15 -61 -11 -71 -39 -15 -73 41 -42 72
16 16 30 15 53 -1z m415 -22 c10 -12 10 -21 2 -40 -14 -31 -56 -34 -72 -5 -24
44 38 83 70 45z m-259 -144 c19 -24 28 -28 63 -24 23 2 48 -1 56 -7 13 -9 11
-13 -10 -30 -14 -11 -41 -20 -60 -20 -35 0 -36 0 -32 -40 2 -22 0 -40 -5 -40
-16 0 -33 24 -33 47 0 24 -14 31 -25 13 -7 -12 -75 -13 -93 -1 -21 13 34 51
72 51 31 0 31 1 28 40 -5 47 7 51 39 11z"/>
<path d="M3916 2164 c-5 -12 -2 -15 10 -10 8 3 18 6 20 6 2 0 4 5 4 10 0 16
-27 11 -34 -6z"/>
<path d="M3880 2149 c0 -5 5 -7 10 -4 6 3 10 8 10 11 0 2 -4 4 -10 4 -5 0 -10
-5 -10 -11z"/>
<path d="M3186 2319 c-35 -28 -34 -62 4 -91 l31 -24 -21 -19 c-31 -28 -26 -62
13 -85 61 -37 97 -19 97 49 0 29 2 30 26 21 34 -13 40 -13 58 6 20 20 20 73 0
102 -18 26 -29 27 -68 7 -15 -8 -30 -15 -31 -15 -2 0 -9 16 -15 35 -10 29 -16
35 -39 35 -16 0 -40 -9 -55 -21z"/>
<path d="M3630 2204 c0 -8 5 -12 10 -9 6 3 10 10 10 16 0 5 -4 9 -10 9 -5 0
-10 -7 -10 -16z"/>
<path d="M3540 2200 c0 -5 5 -10 10 -10 6 0 10 5 10 10 0 6 -4 10 -10 10 -5 0
-10 -4 -10 -10z"/>
<path d="M3580 2170 c0 -11 7 -20 15 -20 8 0 15 9 15 20 0 11 -7 20 -15 20 -8
0 -15 -9 -15 -20z"/>
<path d="M3666 2183 c-12 -12 -6 -33 9 -33 8 0 15 6 15 14 0 17 -14 28 -24 19z"/>
<path d="M3530 2150 c0 -5 7 -10 15 -10 8 0 15 5 15 10 0 6 -7 10 -15 10 -8 0
-15 -4 -15 -10z"/>
<path d="M3710 2139 c0 -5 5 -7 10 -4 6 3 10 8 10 11 0 2 -4 4 -10 4 -5 0 -10
-5 -10 -11z"/>
<path d="M3620 2129 c0 -5 5 -7 10 -4 6 3 10 8 10 11 0 2 -4 4 -10 4 -5 0 -10
-5 -10 -11z"/>
<path d="M3490 2119 c0 -5 5 -7 10 -4 6 3 10 8 10 11 0 2 -4 4 -10 4 -5 0 -10
-5 -10 -11z"/>
<path d="M3576 2122 c-3 -6 -1 -14 5 -17 15 -10 25 3 12 16 -7 7 -13 7 -17 1z"/>
<path d="M3677 2124 c-8 -8 1 -24 14 -24 5 0 9 7 9 15 0 15 -12 20 -23 9z"/>
<path d="M3520 2096 c0 -15 24 -28 34 -19 13 14 5 33 -14 33 -11 0 -20 -6 -20
-14z"/>
<path d="M3622 2093 c4 -21 33 -25 33 -3 0 8 -8 16 -18 18 -14 3 -18 -1 -15
-15z"/>
<path d="M3710 2090 c0 -5 5 -10 11 -10 5 0 7 5 4 10 -3 6 -8 10 -11 10 -2 0
-4 -4 -4 -10z"/>
<path d="M3677 2074 c-8 -8 1 -24 14 -24 5 0 9 7 9 15 0 15 -12 20 -23 9z"/>
<path d="M3582 2059 c2 -6 8 -10 13 -10 5 0 11 4 13 10 2 6 -4 11 -13 11 -9 0
-15 -5 -13 -11z"/>
<path d="M3535 2041 c-6 -11 9 -23 19 -14 9 9 7 23 -3 23 -6 0 -12 -4 -16 -9z"/>
<path d="M3640 2030 c0 -5 5 -10 10 -10 6 0 10 5 10 10 0 6 -4 10 -10 10 -5 0
-10 -4 -10 -10z"/>
<path d="M3600 2009 c0 -5 5 -7 10 -4 6 3 10 8 10 11 0 2 -4 4 -10 4 -5 0 -10
-5 -10 -11z"/>
<path d="M3373 1894 c-8 -20 8 -36 26 -25 15 10 8 41 -9 41 -6 0 -13 -7 -17
-16z"/>
<path d="M3780 1870 c0 -15 5 -20 18 -18 9 2 17 10 17 18 0 8 -8 16 -17 18
-13 2 -18 -3 -18 -18z"/>
<path d="M4120 2371 c0 -207 -92 -473 -231 -671 -68 -97 -204 -232 -301 -299
l-77 -54 27 -47 c15 -25 34 -57 42 -69 l15 -23 80 53 c115 77 296 262 378 385
141 212 215 433 233 692 l7 102 -87 0 -86 0 0 -69z"/>
<path d="M2504 2304 c-227 -162 -391 -361 -493 -600 -69 -160 -111 -347 -111
-496 l0 -78 79 0 78 0 6 90 c17 238 107 480 247 669 68 92 226 243 303 291 31
19 56 39 57 43 0 12 -74 137 -81 137 -4 0 -42 -25 -85 -56z"/>
<path d="M2605 2142 c-161 -113 -326 -311 -404 -484 -65 -146 -111 -335 -111
-459 l0 -69 605 0 c333 0 605 2 605 4 0 4 -606 1055 -612 1061 -2 2 -39 -22
-83 -53z m26 -196 c10 -29 16 -33 30 -25 25 13 86 11 95 -2 10 -17 -36 -49
-73 -49 -30 0 -32 -1 -26 -34 7 -46 -12 -55 -45 -19 -20 21 -34 27 -56 25 -15
-2 -40 -1 -55 3 l-26 7 28 24 c18 15 41 24 63 24 32 0 34 2 28 25 -7 28 0 55
15 55 5 0 15 -15 22 -34z m-207 -228 c16 -26 -4 -53 -40 -53 -23 0 -30 5 -32
23 -7 47 47 69 72 30z m400 -4 c20 -20 20 -38 0 -59 -21 -20 -43 -16 -61 12
-13 19 -12 24 6 42 25 25 35 26 55 5z m-167 -135 c43 -27 65 -69 65 -127 0
-51 -20 -84 -72 -119 -121 -83 -276 79 -195 203 41 63 137 83 202 43z m334
-100 c32 -22 39 -62 16 -93 -12 -16 -10 -22 15 -46 33 -34 35 -49 8 -82 -41
-53 -116 -61 -138 -14 -9 21 -15 23 -55 19 -38 -5 -47 -2 -61 18 -18 26 -21
90 -6 120 8 14 21 19 50 19 36 0 40 3 40 25 0 14 9 34 21 46 25 25 64 21 110
-12z m-631 -65 c41 -35 38 -68 -7 -72 -18 -2 -33 -6 -33 -8 0 -3 14 -26 32
-51 l31 -46 -23 -19 c-35 -28 -45 -21 -76 57 -16 38 -17 39 -27 18 -22 -49
-77 -27 -77 31 0 44 20 76 60 97 48 26 83 24 120 -7z"/>
<path d="M2377 1714 c-14 -14 -7 -35 11 -32 9 2 17 10 17 17 0 16 -18 25 -28
15z"/>
<path d="M2784 1696 c-9 -24 12 -44 28 -28 10 10 8 16 -5 29 -15 15 -17 15
-23 -1z"/>
<path d="M2570 1560 c0 -5 5 -10 10 -10 6 0 10 5 10 10 0 6 -4 10 -10 10 -5 0
-10 -4 -10 -10z"/>
<path d="M2520 1540 c0 -5 7 -10 15 -10 8 0 15 5 15 10 0 6 -7 10 -15 10 -8 0
-15 -4 -15 -10z"/>
<path d="M2626 1542 c-3 -6 -1 -14 5 -17 15 -10 25 3 12 16 -7 7 -13 7 -17 1z"/>
<path d="M2580 1515 c0 -8 5 -15 10 -15 6 0 10 7 10 15 0 8 -4 15 -10 15 -5 0
-10 -7 -10 -15z"/>
<path d="M2485 1511 c-6 -11 9 -23 19 -14 9 9 7 23 -3 23 -6 0 -12 -4 -16 -9z"/>
<path d="M2533 1485 c-7 -20 2 -29 21 -22 9 4 13 13 10 22 -8 19 -23 19 -31 0z"/>
<path d="M2626 1485 c-3 -9 1 -18 10 -22 19 -7 28 2 21 22 -8 19 -23 19 -31 0z"/>
<path d="M2460 1479 c0 -5 5 -7 10 -4 6 3 10 8 10 11 0 2 -4 4 -10 4 -5 0 -10
-5 -10 -11z"/>
<path d="M2486 1461 c-4 -5 -2 -12 3 -15 5 -4 12 -2 15 3 4 5 2 12 -3 15 -5 4
-12 2 -15 -3z"/>
<path d="M2587 1464 c-8 -8 1 -24 14 -24 5 0 9 7 9 15 0 15 -12 20 -23 9z"/>
<path d="M2680 1450 c0 -5 5 -10 11 -10 5 0 7 5 4 10 -3 6 -8 10 -11 10 -2 0
-4 -4 -4 -10z"/>
<path d="M2550 1440 c0 -5 5 -10 11 -10 5 0 7 5 4 10 -3 6 -8 10 -11 10 -2 0
-4 -4 -4 -10z"/>
<path d="M2630 1420 c0 -5 5 -10 10 -10 6 0 10 5 10 10 0 6 -4 10 -10 10 -5 0
-10 -4 -10 -10z"/>
<path d="M2492 1403 c2 -10 10 -18 18 -18 8 0 16 8 18 18 2 12 -3 17 -18 17
-15 0 -20 -5 -18 -17z"/>
<path d="M2577 1414 c-14 -14 -7 -35 11 -32 9 2 17 10 17 17 0 16 -18 25 -28
15z"/>
<path d="M2536 1373 c-11 -11 -6 -23 9 -23 8 0 15 4 15 9 0 13 -16 22 -24 14z"/>
<path d="M2620 1370 c0 -5 5 -10 10 -10 6 0 10 5 10 10 0 6 -4 10 -10 10 -5 0
-10 -4 -10 -10z"/>
<path d="M2891 1476 c-7 -8 -15 -30 -18 -49 -5 -33 -7 -35 -29 -27 -47 18 -76
-15 -67 -78 7 -45 33 -57 79 -37 21 8 38 14 38 13 1 -2 6 -16 12 -33 13 -42
52 -45 94 -7 39 33 35 62 -10 89 l-29 17 25 29 c28 34 29 40 7 62 -33 34 -83
44 -102 21z"/>
<path d="M2285 1420 c-3 -5 -2 -10 4 -10 5 0 13 5 16 10 3 6 2 10 -4 10 -5 0
-13 -4 -16 -10z"/>
<path d="M2241 1406 c-10 -12 -7 -15 18 -14 25 1 27 3 16 14 -17 17 -20 17
-34 0z"/>
<path d="M1790 930 c-25 -48 25 -97 88 -86 32 5 45 0 92 -32 l54 -37 -37 -3
c-22 -2 -46 3 -59 12 -31 22 -64 20 -88 -4 -17 -17 -18 -24 -10 -41 17 -30 50
-42 83 -30 15 6 27 17 27 26 0 11 12 15 52 15 47 0 56 -4 90 -37 25 -24 38
-32 38 -22 0 9 -9 24 -20 34 l-20 18 21 23 c24 26 40 86 28 105 -9 16 -48 -63
-49 -98 0 -13 -4 -23 -10 -23 -5 0 -10 14 -10 30 0 34 -25 90 -40 90 -11 0 -4
-42 12 -73 5 -9 -21 4 -57 30 -44 33 -65 54 -65 69 0 50 -97 77 -120 34z"/>
<path d="M3227 932 c-10 -10 -17 -27 -17 -38 0 -12 -24 -37 -66 -67 -36 -26
-62 -42 -58 -36 12 20 22 79 13 79 -14 0 -39 -57 -39 -90 0 -16 -4 -30 -10
-30 -5 0 -10 10 -10 23 -1 35 -40 114 -49 98 -12 -19 4 -79 28 -105 l21 -23
-20 -18 c-11 -10 -20 -25 -20 -34 0 -10 13 -2 38 22 34 33 43 37 90 37 40 0
52 -4 52 -15 0 -9 12 -20 27 -26 33 -12 66 0 83 30 8 17 7 24 -10 41 -24 24
-57 26 -88 4 -13 -9 -37 -14 -59 -12 l-37 3 54 37 c47 32 60 37 92 32 63 -11
113 38 88 86 -14 27 -80 28 -103 2z"/>
<path d="M2372 858 c-14 -14 -16 -32 -2 -23 5 3 11 -23 13 -62 l3 -68 2 83 c1
45 1 82 -1 82 -2 0 -8 -5 -15 -12z"/>
<path d="M2441 861 c-8 -5 -14 -24 -14 -41 0 -36 17 -52 51 -47 18 4 22 0 22
-23 0 -29 -19 -43 -45 -34 -8 4 -15 11 -15 17 0 6 -3 7 -6 4 -11 -10 17 -37
37 -37 32 0 52 44 47 101 -6 63 -36 86 -77 60z m54 -41 c0 -31 -3 -35 -25 -35
-19 0 -26 6 -28 23 -5 36 5 54 30 50 19 -2 23 -9 23 -38z"/>
<path d="M2565 860 c-3 -6 -5 -23 -4 -38 1 -15 -1 -37 -5 -49 -16 -49 21 -86
64 -63 21 11 29 64 10 75 -6 4 -5 13 3 25 9 15 9 25 1 38 -13 20 -59 28 -69
12z m54 -14 c15 -18 3 -46 -20 -46 -22 0 -34 22 -25 45 7 19 30 19 45 1z m9
-87 c6 -48 -49 -63 -63 -18 -9 26 13 51 39 47 14 -2 22 -12 24 -29z"/>
<path d="M2693 863 c-7 -2 -13 -12 -13 -21 0 -13 2 -13 14 3 15 21 43 15 53
-11 4 -11 -7 -29 -36 -55 -54 -50 -52 -73 7 -77 25 -2 42 1 42 7 0 6 -18 11
-40 11 -22 0 -40 4 -40 9 0 6 16 22 35 37 19 15 38 37 41 50 10 40 -22 64 -63
47z"/>
</g>
</svg>
